<svg width="370" height="278" viewBox="0 0 370 278" fill="none" xmlns="http://www.w3.org/2000/svg">
<path d="M5.08191 4.41443C9.46578 21.6759 13.8497 38.937 16.247 72.2955C18.7884 114.259 18.0362 152.235 17.4228 194.032C16.611 249.381 43.7684 240.59 88.7504 240.339C129.44 240.112 170.066 239.112 210.77 239.329C230.974 239.461 251.172 239.503 271.378 239.442L275.168 239.43C322.089 239.224 326.336 238.128 329.692 236.553C333.049 234.977 335.515 232.922 337.775 230.525C340.035 228.128 342.09 225.388 343.666 222.168C345.241 218.949 346.337 215.25 346.611 189.495C346.885 163.74 346.337 115.929 346.474 89.4886C346.611 63.0485 347.433 57.9794 348.94 50.6502C350.447 43.3209 352.639 33.7315 354.694 25.923C356.749 18.1141 358.667 12.0861 359.625 9.00392C360.585 5.92133 360.585 5.78451 360.585 5.64732" stroke="#373435" stroke-width="7.55906" stroke-miterlimit="22.9256"/>
<path d="M53.1802 240.292C53.1061 246.944 53.0324 253.597 53.0695 257.588C53.1061 261.579 53.2543 262.91 53.6239 263.871C53.9932 264.831 54.5847 265.423 55.2869 266.125C55.9888 266.827 56.8021 267.64 59.3892 266.975C61.9759 266.31 66.3367 264.166 74.615 259.547C82.8933 254.927 95.0887 247.832 101.187 244.284C107.284 240.736 107.285 240.736 107.285 240.736" stroke="#373435" stroke-width="7.55906" stroke-miterlimit="22.9256"/>
<path d="M16.3293 72.4758C22.383 60.4535 28.4367 48.4312 32.4509 41.5801C36.4644 34.7286 38.4384 33.0478 41.0051 31.8198C43.571 30.5919 46.7296 29.8159 92.9222 29.6867C139.115 29.5574 228.342 30.0744 273.745 30.5269C319.148 30.9793 320.727 31.3674 322.503 32.8543C324.28 34.3408 326.254 36.926 330.005 42.7434C333.756 48.5605 339.283 57.6094 342.046 62.1985C344.81 66.7876 344.81 66.9169 344.81 67.0462" stroke="#373435" stroke-width="7.55906" stroke-miterlimit="22.9256"/>
<path d="M5.50557 11.5785C7.99393 11.5785 10.0112 9.49788 10.0112 6.93124C10.0112 4.3646 7.99393 2.28394 5.50557 2.28394C3.01721 2.28394 1 4.3646 1 6.93124C1 9.49788 3.01721 11.5785 5.50557 11.5785Z" fill="#373435" stroke="#373435" stroke-width="0.755906" stroke-miterlimit="22.9256"/>
<path d="M360.585 10.2946C363.073 10.2946 365.09 8.21394 365.09 5.64731C365.09 3.08067 363.073 1 360.585 1C358.096 1 356.079 3.08067 356.079 5.64731C356.079 8.21394 358.096 10.2946 360.585 10.2946Z" fill="#373435" stroke="#373435" stroke-width="0.755906" stroke-miterlimit="22.9256"/>
<path d="M173.408 155.054H142.662V192.026H173.408V155.054Z" fill="#575757" stroke="#575757" stroke-width="0.755906" stroke-miterlimit="22.9256"/>
<path fill-rule="evenodd" clip-rule="evenodd" d="M306.047 138.439H343.663V206.517C343.663 212.282 338.946 216.999 333.181 216.999H306.047V138.439Z" fill="#575757" stroke="#575757" stroke-width="0.755906" stroke-miterlimit="22.9256"/>
<path d="M279.426 92.2012H209.763V121.779H279.426V92.2012Z" fill="#575757" stroke="#575757" stroke-width="0.755906" stroke-miterlimit="22.9256"/>
<path fill-rule="evenodd" clip-rule="evenodd" d="M183.916 117.075H301.652C309.551 117.075 316.014 123.538 316.014 131.437V222.355H183.916C176.017 222.355 169.554 215.891 169.554 207.992V131.437C169.554 123.538 176.017 117.075 183.916 117.075Z" fill="#FFB700" stroke="#FFCC29" stroke-width="0.755906" stroke-miterlimit="22.9256"/>
<path d="M193.401 123.984C190.887 123.881 188.373 123.778 186.372 123.804C184.371 123.829 182.883 123.984 181.651 124.42C180.42 124.856 179.445 125.574 178.65 126.215C177.854 126.857 177.238 127.421 176.725 128.089C176.212 128.755 175.802 129.525 175.417 130.346C175.032 131.167 174.673 132.039 174.417 132.809C174.16 133.579 174.006 134.246 173.929 134.99C173.852 135.734 173.852 136.555 173.878 148.484C173.903 160.414 173.954 183.453 173.98 194.972C174.006 206.491 174.006 206.491 174.006 206.491" stroke="#FFF212" stroke-width="2.83465" stroke-miterlimit="22.9256"/>
<path fill-rule="evenodd" clip-rule="evenodd" d="M217.089 220.473H225.848V231.934C225.848 234.342 223.878 236.313 221.469 236.313H221.468C219.06 236.313 217.089 234.342 217.089 231.934V220.473Z" fill="#FFB700" stroke="#FFCC29" stroke-width="0.755906" stroke-miterlimit="22.9256"/>
<path fill-rule="evenodd" clip-rule="evenodd" d="M263.577 220.473H272.336V231.934C272.336 234.342 270.366 236.313 267.957 236.313H267.956C265.548 236.313 263.577 234.342 263.577 231.934V220.473Z" fill="#FFB700" stroke="#FFCC29" stroke-width="0.755906" stroke-miterlimit="22.9256"/>
<path d="M214.446 197.658C203.99 189.218 199.043 175.698 201.586 162.503C204.433 147.73 216.089 136.238 230.901 133.601" stroke="#FFFBD6" stroke-width="5.66929" stroke-miterlimit="22.9256"/>
<path d="M263.75 139.725C275.829 147.043 282.574 160.696 281.047 174.736C278.877 194.689 260.942 209.104 240.99 206.933C238.044 206.613 235.148 205.933 232.367 204.909" stroke="#FFFBD6" stroke-width="5.66929" stroke-miterlimit="22.9256"/>
<path fill-rule="evenodd" clip-rule="evenodd" d="M241.014 128.3L262.496 126.062L244.594 161.418M265.181 161.418L217.294 209.305ZM244.594 161.418H265.181ZM240.305 173.076L217.294 209.305ZM223.56 173.949L240.305 173.076ZM241.014 128.3L223.56 173.949Z" stroke="#FFFBD6" stroke-width="2.83465" stroke-miterlimit="22.9256"/>
<path fill-rule="evenodd" clip-rule="evenodd" d="M22.8714 266.982H358.571C359.5 266.982 360.259 267.742 360.259 268.671V275.183C360.259 276.112 359.5 276.872 358.571 276.872H22.8714C21.9424 276.872 21.1827 276.112 21.1827 275.183V268.671C21.1827 267.742 21.9424 266.982 22.8714 266.982Z" fill="#373435" stroke="#373435" stroke-width="0.755906" stroke-miterlimit="22.9256"/>
<path d="M258.825 51.6707H229.607V58.2497H258.825V51.6707Z" fill="#373435" stroke="#373435" stroke-width="0.755906" stroke-miterlimit="22.9256"/>
<path d="M336.666 57.1921H26.8516C22.5625 57.1921 19.0854 60.5764 19.0854 64.7512V91.6875C19.0854 95.8623 22.5625 99.2466 26.8516 99.2466H336.666C340.955 99.2466 344.432 95.8623 344.432 91.6875V64.7512C344.432 60.5764 340.955 57.1921 336.666 57.1921Z" fill="#FFCC29" stroke="#FFCC29" stroke-width="0.755906" stroke-miterlimit="22.9256"/>
<path fill-rule="evenodd" clip-rule="evenodd" d="M226.872 51.4518H261.157C261.573 51.4518 261.913 51.1116 261.913 50.6959V47.7818C261.913 45.5432 260.081 43.7117 257.843 43.7117H230.186C227.947 43.7117 226.116 45.5432 226.116 47.7818V50.6959C226.116 51.1116 226.456 51.4518 226.872 51.4518Z" fill="#605F54" stroke="#373435" stroke-width="0.755906" stroke-miterlimit="22.9256"/>
<path fill-rule="evenodd" clip-rule="evenodd" d="M29.3521 63.3279H333.308C333.827 63.3279 334.253 63.7531 334.253 64.2728V65.427C334.253 65.9467 333.827 66.3719 333.308 66.3719H29.3521C28.8324 66.3719 28.4072 65.9467 28.4072 65.427V64.2728C28.4072 63.7531 28.8324 63.3279 29.3521 63.3279Z" fill="#FFF212" stroke="#FFF212" stroke-width="0.755906" stroke-miterlimit="22.9256"/>
<path d="M329.272 272.493C351.023 272.493 368.655 254.86 368.655 233.109C368.655 211.359 351.023 193.726 329.272 193.726C307.521 193.726 289.889 211.359 289.889 233.109C289.889 254.86 307.521 272.493 329.272 272.493Z" fill="#575757" stroke="#373435" stroke-width="0.755906" stroke-miterlimit="22.9256"/>
<path d="M328.936 257.947C342.839 257.947 354.11 246.677 354.11 232.774C354.11 218.87 342.839 207.6 328.936 207.6C315.033 207.6 303.762 218.87 303.762 232.774C303.762 246.677 315.033 257.947 328.936 257.947Z" stroke="#373435" stroke-width="0.755906" stroke-miterlimit="22.9256"/>
<path d="M329.202 257.724C343.044 257.724 354.265 246.504 354.265 232.662C354.265 218.82 343.044 207.6 329.202 207.6C315.361 207.6 304.14 218.82 304.14 232.662C304.14 246.504 315.361 257.724 329.202 257.724Z" fill="#FFCC29" stroke="#373435" stroke-width="0.755906" stroke-miterlimit="22.9256"/>
<path d="M329.272 248.451C337.953 248.451 344.991 241.413 344.991 232.732C344.991 224.05 337.953 217.012 329.272 217.012C320.59 217.012 313.552 224.05 313.552 232.732C313.552 241.413 320.59 248.451 329.272 248.451Z" fill="#575757" stroke="#373435" stroke-width="0.755906" stroke-miterlimit="22.9256"/>
<path d="M299.707 237.95C296.165 230.022 297.609 220.225 303.462 212.478C310.016 203.804 320.807 199.38 330.602 201.351" stroke="#FFFBD6" stroke-opacity="0.090196" stroke-width="2.83465" stroke-miterlimit="22.9256"/>
<path fill-rule="evenodd" clip-rule="evenodd" d="M38.7515 99.5962H142.273V213.551C142.273 219.372 137.511 224.134 131.691 224.134H48.9562C43.3436 224.134 38.7515 219.542 38.7515 213.929V99.5962Z" fill="#605F54" stroke="#575757" stroke-width="0.755906" stroke-miterlimit="22.9256"/>
<path d="M123.407 134.449H53.9471C53.5296 134.449 53.1912 134.788 53.1912 135.205V142.348C53.1912 142.766 53.5296 143.104 53.9471 143.104H123.407C123.825 143.104 124.163 142.766 124.163 142.348V135.205C124.163 134.788 123.825 134.449 123.407 134.449Z" fill="#373435" stroke="#373435" stroke-width="0.755906" stroke-miterlimit="22.9256"/>
<path d="M123.844 150.126H54.384C53.9665 150.126 53.6281 150.464 53.6281 150.882V158.025C53.6281 158.442 53.9665 158.781 54.384 158.781H123.844C124.262 158.781 124.6 158.442 124.6 158.025V150.882C124.6 150.464 124.262 150.126 123.844 150.126Z" fill="#373435" stroke="#373435" stroke-width="0.755906" stroke-miterlimit="22.9256"/>
<path d="M123.527 117.985H54.0665C53.649 117.985 53.3105 118.323 53.3105 118.741V125.884C53.3105 126.302 53.649 126.64 54.0665 126.64H123.527C123.944 126.64 124.283 126.302 124.283 125.884V118.741C124.283 118.323 123.944 117.985 123.527 117.985Z" fill="#373435" stroke="#373435" stroke-width="0.755906" stroke-miterlimit="22.9256"/>
<path fill-rule="evenodd" clip-rule="evenodd" d="M58.6529 177.087C58.8645 176.374 58.8955 175.324 59.2171 174.674C59.5384 174.023 60.1496 173.772 61.2078 173.631C62.2657 173.49 63.7707 173.458 65.6752 173.458C67.5797 173.458 69.8837 173.49 71.2164 173.647C72.5487 173.804 72.9092 174.086 73.1368 174.76C73.3639 175.434 73.4577 176.499 74.1633 177.487C74.8686 178.475 76.1853 179.384 77.032 180.058C77.8782 180.732 78.2546 181.171 78.4584 181.406C78.6621 181.641 78.6934 181.672 78.7093 181.688C78.7248 181.704 78.7248 181.704 78.7014 181.704C78.6776 181.704 78.6307 181.704 78.6073 181.696C78.5835 181.688 78.5834 181.672 78.5834 181.665C78.5834 181.657 78.5834 181.657 78.5834 181.657C78.5834 181.657 78.5835 181.657 78.8972 182.08C79.2105 182.503 79.8375 183.35 80.3942 184.274C80.9506 185.199 81.4362 186.202 81.7734 187.307C82.1105 188.413 82.2983 189.619 82.3456 191.03C82.3925 192.441 82.2987 194.055 81.9227 195.701C81.5462 197.347 80.8878 199.024 79.822 200.584C78.7558 202.144 77.2825 203.586 76.154 204.527C75.025 205.467 74.2415 205.906 73.6852 206.267C73.1285 206.627 72.7996 206.909 72.5411 207.285C72.2822 207.661 72.0944 208.132 71.7338 208.696C71.3732 209.26 70.84 209.919 70.1974 210.342C69.5545 210.765 68.8024 210.953 67.8148 211.016C66.8272 211.079 65.6046 211.016 64.6642 210.875C63.7235 210.734 63.0655 210.514 62.4777 210.013C61.8897 209.511 61.3726 208.728 60.9572 208.116C60.5415 207.505 60.2282 207.066 59.5698 206.588C58.9114 206.109 57.9079 205.592 56.9521 204.957C55.9959 204.322 55.0865 203.57 54.2482 202.607C53.4095 201.642 52.6412 200.467 51.9593 199.025C51.2775 197.582 50.6818 195.874 50.3526 194.369C50.0234 192.864 49.9611 191.563 50.0866 190.262C50.2117 188.961 50.5254 187.66 51.0035 186.437C51.4812 185.215 52.1241 184.071 52.9707 182.997C53.817 181.923 54.8673 180.92 55.6825 180.191C56.4974 179.462 57.0776 179.008 57.5636 178.592C58.0493 178.177 58.4412 177.8 58.6529 177.087Z" fill="#605F54" stroke="#373435" stroke-width="2.83465" stroke-miterlimit="22.9256"/>
<path d="M117.526 179.902H104.936C102.848 179.902 101.156 181.461 101.156 183.384C101.156 185.308 102.848 186.867 104.936 186.867H117.526C119.613 186.867 121.305 185.308 121.305 183.384C121.305 181.461 119.613 179.902 117.526 179.902Z" fill="#ED3237" stroke="#373435" stroke-width="0.944882" stroke-miterlimit="22.9256"/>
<path d="M117.561 191.179H104.971C102.883 191.179 101.191 192.738 101.191 194.662C101.191 196.585 102.883 198.144 104.971 198.144H117.561C119.648 198.144 121.341 196.585 121.341 194.662C121.341 192.738 119.648 191.179 117.561 191.179Z" fill="#A8CF45" stroke="#373435" stroke-width="0.944882" stroke-miterlimit="22.9256"/>
<path d="M56.3762 191.469C55.1494 189.776 55.1909 187.276 56.4847 184.968C58.4164 181.52 62.4975 179.561 65.6001 180.591C65.7634 180.645 65.9225 180.708 66.0763 180.777" stroke="#605F54" stroke-width="1.88976" stroke-miterlimit="22.9256"/>
<path fill-rule="evenodd" clip-rule="evenodd" d="M54.9471 221.985H63.7066V233.446C63.7066 235.854 61.7359 237.825 59.3272 237.825H59.3265C56.9178 237.825 54.9471 235.854 54.9471 233.446V221.985Z" fill="#605F54" stroke="#575757" stroke-width="0.755906" stroke-miterlimit="22.9256"/>
<path fill-rule="evenodd" clip-rule="evenodd" d="M115.042 221.229H123.801V232.69C123.801 235.098 121.83 237.069 119.422 237.069H119.421C117.012 237.069 115.042 235.098 115.042 232.69V221.229Z" fill="#605F54" stroke="#575757" stroke-width="0.755906" stroke-miterlimit="22.9256"/>
</svg>
